<?xml version="1.0" standalone="no"?>
<!DOCTYPE svg PUBLIC "-//W3C//DTD SVG 20010904//EN"
 "http://www.w3.org/TR/2001/REC-SVG-20010904/DTD/svg10.dtd">
<svg version="1.0" xmlns="http://www.w3.org/2000/svg"
 width="512.000000pt" height="512.000000pt" viewBox="0 0 512.000000 512.000000"
 preserveAspectRatio="xMidYMid meet">
<metadata>
Created by potrace 1.14, written by Peter Selinger 2001-2017
</metadata>
<g transform="translate(0.000000,512.000000) scale(0.100000,-0.100000)"
fill="#000000" stroke="none">
<path d="M1470 4933 c-425 -70 -689 -348 -717 -753 -5 -83 -10 -101 -35 -138
-41 -59 -94 -176 -114 -247 -10 -37 -18 -116 -21 -205 -4 -125 -8 -152 -28
-196 -48 -104 -67 -185 -72 -306 -4 -72 -1 -141 6 -177 l12 -60 -50 -103 c-80
-166 -105 -325 -77 -488 39 -224 193 -428 401 -531 140 -69 154 -71 503 -76
171 -3 312 -7 312 -9 0 -2 -15 -41 -34 -86 -73 -177 -102 -344 -93 -543 13
-284 77 -464 217 -606 112 -113 268 -185 454 -210 203 -26 311 3 420 114 107
109 159 238 235 580 22 98 51 202 64 230 13 29 61 95 107 147 46 52 171 204
277 338 107 133 231 280 276 327 l83 84 444 3 445 3 56 28 c67 32 151 118 182
184 l22 48 3 989 c3 1092 5 1044 -60 1142 -18 27 -55 65 -83 86 -97 73 -84 72
-630 78 l-490 5 -335 112 c-466 155 -671 208 -892 232 -91 10 -733 13 -788 4z
m680 -363 c242 -25 484 -83 814 -196 401 -136 508 -164 632 -164 l54 0 0 -915
0 -915 -67 0 c-157 0 -306 -125 -601 -505 -102 -131 -182 -229 -360 -438 -90
-106 -135 -224 -213 -557 -41 -177 -76 -275 -110 -306 -16 -14 -33 -16 -101
-11 -258 16 -368 170 -368 511 0 162 18 225 159 550 57 131 98 261 107 342 l7
54 -549 2 -549 3 -57 27 c-32 15 -81 50 -108 78 -125 124 -142 295 -49 483 37
75 71 113 116 128 l33 11 -21 30 c-28 39 -65 150 -74 219 -14 111 29 245 106
333 l41 46 -20 53 c-30 79 -36 151 -19 233 21 97 66 182 125 235 l49 44 -8 70
c-9 84 5 229 28 288 63 160 192 244 418 270 69 9 497 6 585 -3z m2117 -371
c35 -13 80 -55 100 -93 40 -76 4 -187 -75 -233 -59 -35 -143 -30 -197 11 -69
53 -92 143 -56 221 39 86 140 128 228 94z"/>
</g>
</svg>
