<?xml version="1.0" standalone="no"?>
<!DOCTYPE svg PUBLIC "-//W3C//DTD SVG 20010904//EN"
 "http://www.w3.org/TR/2001/REC-SVG-20010904/DTD/svg10.dtd">
<svg version="1.0" xmlns="http://www.w3.org/2000/svg"
 width="512.000000pt" height="512.000000pt" viewBox="0 0 512.000000 512.000000"
 preserveAspectRatio="xMidYMid meet">
<metadata>
Created by potrace 1.14, written by Peter Selinger 2001-2017
</metadata>
<g transform="translate(0.000000,512.000000) scale(0.100000,-0.100000)"
fill="#000000" stroke="none">
<path d="M2723 4911 c-67 -23 -124 -63 -179 -125 -90 -104 -142 -239 -213
-559 -22 -98 -51 -202 -64 -230 -13 -29 -61 -95 -107 -147 -46 -52 -171 -204
-277 -338 -107 -133 -231 -280 -276 -327 l-83 -84 -444 -3 -445 -3 -56 -28
c-67 -32 -151 -118 -182 -184 l-22 -48 -3 -989 c-3 -1092 -5 -1044 60 -1142
18 -27 56 -65 83 -86 97 -73 84 -72 630 -78 l490 -5 335 -112 c681 -227 798
-247 1360 -241 322 4 351 6 430 27 360 98 582 364 607 731 5 83 10 101 35 138
41 59 94 176 114 247 10 37 18 116 21 205 4 125 8 152 28 196 48 104 67 185
72 306 4 72 1 141 -6 177 l-12 60 50 103 c80 166 105 325 77 488 -39 224 -193
428 -401 531 -140 69 -154 71 -502 76 -172 3 -313 7 -313 9 0 2 15 41 34 86
73 177 102 344 93 543 -9 202 -49 364 -119 483 -45 77 -149 180 -228 226 -167
98 -450 145 -587 97z m341 -381 c154 -59 226 -213 226 -484 0 -162 -18 -225
-159 -550 -57 -131 -98 -261 -107 -342 l-7 -54 549 -2 549 -3 57 -27 c32 -15
81 -50 108 -78 125 -124 142 -295 49 -483 -37 -75 -71 -113 -116 -128 l-33
-11 21 -30 c28 -39 65 -150 74 -219 14 -111 -29 -245 -106 -333 l-41 -46 20
-53 c30 -79 36 -151 19 -233 -21 -97 -66 -182 -125 -235 l-49 -44 8 -70 c15
-132 -12 -277 -66 -365 -50 -80 -160 -151 -280 -180 -72 -17 -527 -25 -667
-11 -253 25 -491 81 -832 197 -401 136 -508 164 -632 164 l-54 0 0 915 0 915
68 0 c156 0 305 125 600 505 102 131 182 229 360 438 90 106 135 224 212 557
40 171 73 265 108 303 15 17 27 19 102 14 53 -3 107 -13 144 -27z m-2039
-3294 c67 -51 91 -138 60 -213 -20 -48 -41 -71 -87 -94 -118 -60 -260 28 -260
162 0 61 34 123 87 155 57 35 146 31 200 -10z"/>
</g>
</svg>
