<?xml version="1.0" standalone="no"?>
<!DOCTYPE svg PUBLIC "-//W3C//DTD SVG 20010904//EN"
 "http://www.w3.org/TR/2001/REC-SVG-20010904/DTD/svg10.dtd">
<svg version="1.0" xmlns="http://www.w3.org/2000/svg"
 width="1920.000000pt" height="1180.000000pt" viewBox="0 0 1920.000000 1180.000000"
 preserveAspectRatio="xMidYMid meet">
<metadata>
Created by potrace 1.14, written by Peter Selinger 2001-2017
</metadata>
<g transform="translate(0.000000,1180.000000) scale(0.100000,-0.100000)"
fill="#000000" stroke="none">
<path d="M9563 11793 l-9563 -3 0 -5895 0 -5895 9600 0 9600 0 0 5900 0 5900
-37 -2 c-21 -2 -4341 -4 -9600 -5z m9587 -5898 l0 -5845 -9555 0 -9555 0 0
5845 0 5845 9555 0 9555 0 0 -5845z"/>
<path d="M9519 6461 c-141 -45 -226 -152 -249 -310 -27 -190 59 -363 208 -422
74 -30 242 -32 312 -5 95 36 90 25 90 214 0 117 -4 172 -12 180 -8 8 -55 12
-144 12 -124 0 -133 -1 -139 -20 -3 -11 -3 -29 0 -40 6 -18 15 -20 101 -20
l94 0 0 -113 0 -114 -27 -13 c-16 -7 -57 -15 -93 -17 -119 -9 -204 40 -262
150 -19 35 -22 58 -23 142 0 90 3 106 28 157 70 143 235 188 397 110 35 -17
68 -28 72 -26 4 3 8 20 8 39 0 43 -31 68 -117 95 -80 25 -169 25 -244 1z"/>
<path d="M10277 6470 c-98 -25 -179 -97 -218 -196 -20 -52 -23 -76 -23 -194 0
-116 3 -143 22 -190 30 -76 73 -124 140 -157 51 -25 68 -28 157 -28 84 0 109
4 152 24 68 30 134 102 164 177 21 52 24 74 24 194 -1 115 -4 143 -23 190 -48
122 -133 180 -274 186 -46 2 -100 -1 -121 -6z m165 -90 c48 -14 94 -52 118
-100 39 -77 47 -214 19 -324 -33 -126 -158 -193 -291 -156 -48 14 -94 52 -118
100 -42 82 -48 246 -14 344 40 111 163 170 286 136z"/>
<path d="M8817 6464 c-4 -4 -7 -170 -7 -369 0 -296 3 -365 14 -374 9 -8 69
-11 192 -9 l179 3 0 40 0 40 -142 3 -143 3 -2 332 -3 332 -40 3 c-23 2 -44 0
-48 -4z"/>
</g>
</svg>
